<svg xmlns="http://www.w3.org/2000/svg" width="1000" height="1000" viewBox="0 0 1000 1000" fill="none">
<circle cx="500" cy="500" r="500" fill="#343F56"/>
<circle cx="500" cy="500" r="497.5" stroke="white" stroke-opacity="0.5" stroke-width="5"/>
<circle cx="500" cy="500" r="500" fill="#343F56"/>
<circle cx="500" cy="500" r="497.5" stroke="white" stroke-opacity="0.5" stroke-width="5"/>
<g filter="url(#filter0_d_202_2)">
<path d="M90.6914 517.648L146.355 537.277V564.621L62.2734 528.977V505.93L146.355 470.285V497.629L90.6914 517.648ZM885.418 517.355L828.68 497.531V470.383L913.738 506.027V528.977L828.68 564.719V537.473L885.418 517.355Z" fill="#A799B7"/>
<path d="M199.383 578H171.062V428H199.383V578ZM283.953 578C282.651 575.461 281.707 572.303 281.121 568.527C274.285 576.145 265.398 579.953 254.461 579.953C244.109 579.953 235.516 576.958 228.68 570.969C221.909 564.979 218.523 557.427 218.523 548.312C218.523 537.115 222.658 528.521 230.926 522.531C239.259 516.542 251.271 513.514 266.961 513.449H279.949V507.395C279.949 502.512 278.68 498.605 276.141 495.676C273.667 492.746 269.728 491.281 264.324 491.281C259.572 491.281 255.828 492.421 253.094 494.699C250.424 496.978 249.09 500.103 249.09 504.074H220.867C220.867 497.954 222.755 492.29 226.531 487.082C230.307 481.874 235.646 477.805 242.547 474.875C249.448 471.88 257.195 470.383 265.789 470.383C278.81 470.383 289.129 473.671 296.746 480.246C304.428 486.757 308.27 495.936 308.27 507.785V553.586C308.335 563.612 309.734 571.197 312.469 576.34V578H283.953ZM260.613 558.371C264.78 558.371 268.621 557.46 272.137 555.637C275.652 553.749 278.257 551.242 279.949 548.117V529.953H269.402C255.275 529.953 247.755 534.836 246.844 544.602L246.746 546.262C246.746 549.777 247.983 552.674 250.457 554.953C252.931 557.232 256.316 558.371 260.613 558.371ZM367.938 543.527L387.566 472.336H417.059L381.414 578H354.461L318.816 472.336H348.309L367.938 543.527Z" fill="#FDCA40"/>
<path d="M484.441 528.488H429.461V505.734H484.441V528.488Z" fill="#F54748"/>
<path d="M502.703 524.387C502.703 507.915 506.382 494.797 513.738 485.031C521.16 475.266 531.284 470.383 544.109 470.383C554.396 470.383 562.892 474.224 569.598 481.906V428H597.918V578H572.43L571.062 566.77C564.031 575.559 554.982 579.953 543.914 579.953C531.479 579.953 521.486 575.07 513.934 565.305C506.447 555.474 502.703 541.835 502.703 524.387ZM530.926 526.438C530.926 536.333 532.651 543.918 536.102 549.191C539.552 554.465 544.565 557.102 551.141 557.102C559.865 557.102 566.017 553.423 569.598 546.066V504.367C566.082 497.01 559.995 493.332 551.336 493.332C537.729 493.332 530.926 504.367 530.926 526.438ZM668.426 579.953C652.931 579.953 640.301 575.201 630.535 565.695C620.835 556.19 615.984 543.527 615.984 527.707V524.973C615.984 514.361 618.035 504.888 622.137 496.555C626.238 488.156 632.033 481.711 639.52 477.219C647.072 472.661 655.665 470.383 665.301 470.383C679.754 470.383 691.115 474.94 699.383 484.055C707.716 493.169 711.883 506.092 711.883 522.824V534.348H644.598C645.509 541.249 648.243 546.783 652.801 550.949C657.423 555.116 663.25 557.199 670.281 557.199C681.154 557.199 689.65 553.26 695.77 545.383L709.637 560.91C705.405 566.9 699.676 571.587 692.449 574.973C685.223 578.293 677.215 579.953 668.426 579.953ZM665.203 493.234C659.604 493.234 655.047 495.122 651.531 498.898C648.081 502.674 645.867 508.078 644.891 515.109H684.148V512.863C684.018 506.613 682.326 501.796 679.07 498.41C675.815 494.96 671.193 493.234 665.203 493.234ZM766.18 543.527L785.809 472.336H815.301L779.656 578H752.703L717.059 472.336H746.551L766.18 543.527Z" fill="#66DE93"/>
</g>
<defs>
<filter id="filter0_d_202_2" x="62.2734" y="428" width="869.465" height="161.953" filterUnits="userSpaceOnUse" color-interpolation-filters="sRGB">
<feFlood flood-opacity="0" result="BackgroundImageFix"/>
<feColorMatrix in="SourceAlpha" type="matrix" values="0 0 0 0 0 0 0 0 0 0 0 0 0 0 0 0 0 0 127 0" result="hardAlpha"/>
<feOffset dx="18" dy="10"/>
<feComposite in2="hardAlpha" operator="out"/>
<feColorMatrix type="matrix" values="0 0 0 0 0 0 0 0 0 0 0 0 0 0 0 0 0 0 0.17 0"/>
<feBlend mode="normal" in2="BackgroundImageFix" result="effect1_dropShadow_202_2"/>
<feBlend mode="normal" in="SourceGraphic" in2="effect1_dropShadow_202_2" result="shape"/>
</filter>
</defs>
</svg>